<svg xmlns="http://www.w3.org/2000/svg" viewBox="0 0 720 240" width="720" height="240" fill="none" aria-label="Sonar — Battaglia &amp; Pedrosa Advogados">
  <defs>
    <radialGradient id="sweep" cx="50%" cy="50%" r="50%">
      <stop offset="0%" stop-color="#3CFF8A" stop-opacity="0.42"></stop>
      <stop offset="80%" stop-color="#3CFF8A" stop-opacity="0.08"></stop>
      <stop offset="100%" stop-color="#3CFF8A" stop-opacity="0"></stop>
    </radialGradient>
    <radialGradient id="tipGlow" cx="50%" cy="50%" r="50%">
      <stop offset="0%" stop-color="#E8FFEE" stop-opacity="1"></stop>
      <stop offset="60%" stop-color="#3CFF8A" stop-opacity="0.6"></stop>
      <stop offset="100%" stop-color="#3CFF8A" stop-opacity="0"></stop>
    </radialGradient>
    <linearGradient id="dashGrad" x1="0" y1="0" x2="1" y2="0">
      <stop offset="0%" stop-color="#3CFF8A"></stop>
      <stop offset="100%" stop-color="#3CFF8A" stop-opacity="0.2"></stop>
    </linearGradient>
  </defs>

  
  <g transform="translate(10 20) scale(2)">
    <circle cx="50" cy="50" r="46" stroke="#3CFF8A" stroke-width="0.9"></circle>
    <circle cx="50" cy="50" r="44.5" stroke="#3CFF8A" stroke-width="3" stroke-dasharray="0.45 11.2" stroke-opacity="0.75"></circle>
    <line x1="50" y1="1" x2="50" y2="6" stroke="#3CFF8A" stroke-width="0.9"></line>
    <line x1="50" y1="94" x2="50" y2="99" stroke="#3CFF8A" stroke-width="0.9"></line>
    <line x1="1" y1="50" x2="6" y2="50" stroke="#3CFF8A" stroke-width="0.9"></line>
    <line x1="94" y1="50" x2="99" y2="50" stroke="#3CFF8A" stroke-width="0.9"></line>
    <circle cx="50" cy="50" r="36" stroke="#3CFF8A" stroke-width="0.4" stroke-opacity="0.5"></circle>
    <circle cx="50" cy="50" r="26" stroke="#3CFF8A" stroke-width="0.4" stroke-opacity="0.5"></circle>
    <circle cx="50" cy="50" r="16" stroke="#3CFF8A" stroke-width="0.4" stroke-opacity="0.5"></circle>
    <line x1="6" y1="50" x2="94" y2="50" stroke="#3CFF8A" stroke-width="0.3" stroke-opacity="0.28"></line>
    <line x1="50" y1="6" x2="50" y2="94" stroke="#3CFF8A" stroke-width="0.3" stroke-opacity="0.28"></line>
    <line x1="18" y1="18" x2="82" y2="82" stroke="#3CFF8A" stroke-width="0.25" stroke-opacity="0.18"></line>
    <line x1="82" y1="18" x2="18" y2="82" stroke="#3CFF8A" stroke-width="0.25" stroke-opacity="0.18"></line>
    <path d="M 50 50 L 50 4 A 46 46 0 0 1 92.5 31 Z" fill="url(#sweep)"></path>
    <line x1="50" y1="50" x2="50" y2="4" stroke="#3CFF8A" stroke-width="1"></line>
    <circle cx="50" cy="4" r="3.5" fill="url(#tipGlow)"></circle>
    <circle cx="50" cy="4" r="0.9" fill="#FFFFFF"></circle>
    <circle cx="72" cy="34" r="3.5" fill="#C9A24A" fill-opacity="0.18"></circle>
    <circle cx="72" cy="34" r="1.6" fill="#C9A24A"></circle>
    <circle cx="62" cy="22" r="1" fill="#C9A24A" fill-opacity="0.85"></circle>
    <circle cx="80" cy="44" r="0.85" fill="#C9A24A" fill-opacity="0.7"></circle>
    <circle cx="66" cy="42" r="0.55" fill="#C9A24A" fill-opacity="0.55"></circle>
    <circle cx="50" cy="50" r="0.6" fill="#3CFF8A"></circle>
  </g>

  
  <g transform="translate(245 0)">
    
    <text x="0" y="155" font-family="Manrope, system-ui, sans-serif" font-weight="500" font-size="140" letter-spacing="-7" fill="#E8E4D6">Sonar</text>

    
    <circle cx="3" cy="178" r="3" fill="#3CFF8A"></circle>
    <rect x="10" y="177" width="320" height="1.6" fill="url(#dashGrad)"></rect>

    
    <g transform="translate(2 210)">
      <text x="0" y="0" font-family="Cormorant Garamond, Georgia, serif" font-weight="400" font-size="26" fill="#C9A24A">Battaglia</text>
      <text x="116" y="0" font-family="Cormorant Garamond, Georgia, serif" font-weight="400" font-size="28" font-style="italic" fill="#C9A24A">&amp;</text>
      <text x="138" y="0" font-family="Cormorant Garamond, Georgia, serif" font-weight="400" font-size="26" fill="#C9A24A">Pedrosa</text>
      <text x="244" y="-2" font-family="JetBrains Mono, monospace" font-weight="500" font-size="10" letter-spacing="3.4" fill="#E8E4D6">ADVOGADOS</text>
    </g>
  </g>
</svg>