<svg xmlns="http://www.w3.org/2000/svg" viewBox="0 0 720 240" width="720" height="240" fill="#FAFAF7" aria-label="Sonar — light variant">
  <rect width="720" height="240" fill="#FAFAF7"></rect>
  <defs>
    <radialGradient id="sweep" cx="50%" cy="50%" r="50%">
      <stop offset="0%" stop-color="#0F1F18" stop-opacity="0.45"></stop>
      <stop offset="100%" stop-color="#0F1F18" stop-opacity="0"></stop>
    </radialGradient>
    <linearGradient id="dashGrad" x1="0" y1="0" x2="1" y2="0">
      <stop offset="0%" stop-color="#0F1F18"></stop>
      <stop offset="100%" stop-color="#0F1F18" stop-opacity="0.2"></stop>
    </linearGradient>
  </defs>

  
  <g transform="translate(10 20) scale(2)">
    <circle cx="50" cy="50" r="46" fill="none" stroke="#0F1F18" stroke-width="1"></circle>
    <circle cx="50" cy="50" r="44.5" fill="none" stroke="#0F1F18" stroke-width="3" stroke-dasharray="0.45 11.2" stroke-opacity="0.7"></circle>
    <line x1="50" y1="1" x2="50" y2="6" stroke="#0F1F18" stroke-width="0.9"></line>
    <line x1="50" y1="94" x2="50" y2="99" stroke="#0F1F18" stroke-width="0.9"></line>
    <line x1="1" y1="50" x2="6" y2="50" stroke="#0F1F18" stroke-width="0.9"></line>
    <line x1="94" y1="50" x2="99" y2="50" stroke="#0F1F18" stroke-width="0.9"></line>
    <circle cx="50" cy="50" r="36" fill="none" stroke="#0F1F18" stroke-width="0.4" stroke-opacity="0.5"></circle>
    <circle cx="50" cy="50" r="26" fill="none" stroke="#0F1F18" stroke-width="0.4" stroke-opacity="0.5"></circle>
    <circle cx="50" cy="50" r="16" fill="none" stroke="#0F1F18" stroke-width="0.4" stroke-opacity="0.5"></circle>
    <path d="M 50 50 L 50 4 A 46 46 0 0 1 92.5 31 Z" fill="url(#sweep)"></path>
    <line x1="50" y1="50" x2="50" y2="4" stroke="#0F1F18" stroke-width="1.1"></line>
    <circle cx="72" cy="34" r="2" fill="#A77A2E"></circle>
    <circle cx="62" cy="22" r="1" fill="#A77A2E" fill-opacity="0.85"></circle>
  </g>

  <g transform="translate(245 0)">
    <text x="0" y="155" font-family="Manrope, system-ui, sans-serif" font-weight="500" font-size="140" letter-spacing="-7" fill="#0F1F18">Sonar</text>
    <circle cx="3" cy="178" r="3" fill="#0F1F18"></circle>
    <rect x="10" y="177" width="320" height="1.6" fill="url(#dashGrad)"></rect>
    <g transform="translate(2 210)">
      <text x="0" y="0" font-family="Cormorant Garamond, Georgia, serif" font-weight="400" font-size="26" fill="#A77A2E">Battaglia</text>
      <text x="116" y="0" font-family="Cormorant Garamond, Georgia, serif" font-weight="400" font-size="28" font-style="italic" fill="#A77A2E">&amp;</text>
      <text x="138" y="0" font-family="Cormorant Garamond, Georgia, serif" font-weight="400" font-size="26" fill="#A77A2E">Pedrosa</text>
      <text x="244" y="-2" font-family="JetBrains Mono, monospace" font-weight="500" font-size="10" letter-spacing="3.4" fill="#0F1F18">ADVOGADOS</text>
    </g>
  </g>
</svg>